<svg width="301" height="301" viewBox="0 0 301 301" fill="none" xmlns="http://www.w3.org/2000/svg">
<path d="M93.4956 217.515L49.0735 261.937C47.365 263.646 47.566 266.36 49.2745 267.867C67.4655 283.445 88.37 294.098 110.28 299.927C112.29 300.43 114.4 299.425 115.104 297.515L138.722 235.606C140.229 231.586 143.747 228.47 148.068 227.666C153.797 226.661 159.325 229.978 161.335 235.204L185.053 297.415C185.757 299.324 187.867 300.43 189.878 299.827C211.787 293.998 232.692 283.344 250.883 267.767C252.692 266.259 252.792 263.545 251.084 261.837L206.661 217.415C175.305 186.259 124.752 186.259 93.4956 217.515Z" fill="#191919"/>
<path d="M82.5406 93.4956L38.1185 49.0735C36.41 47.365 33.6964 47.566 32.1889 49.2745C16.611 67.4655 5.95772 88.37 0.12857 110.28C-0.373943 112.29 0.631082 114.4 2.54063 115.104L64.5507 138.722C68.5708 140.229 71.6864 143.747 72.4904 148.068C73.4954 153.797 70.1788 159.325 64.9527 161.335L2.64113 184.953C0.731585 185.656 -0.373943 187.767 0.229072 189.777C6.05822 211.687 16.7115 232.591 32.2894 250.782C33.7969 252.591 36.5105 252.692 38.219 250.983L82.6411 206.561C113.797 175.305 113.797 124.752 82.5406 93.4956Z" fill="#191919"/>
<path d="M206.561 82.5406L250.983 38.1185C252.691 36.41 252.49 33.6964 250.782 32.1889C232.591 16.611 211.686 5.95772 189.777 0.12857C187.767 -0.373943 185.656 0.631082 184.953 2.54063L161.335 64.4502C159.827 68.4703 156.309 71.5859 151.988 72.3899C146.259 73.3949 140.732 70.0783 138.722 64.8522L115.103 2.64113C114.4 0.731585 112.289 -0.373943 110.279 0.229072C88.3698 5.95772 67.4653 16.611 49.2743 32.1889C47.4653 33.6964 47.3648 36.41 49.0733 38.1185L93.4954 82.5406C124.752 113.797 175.304 113.797 206.561 82.5406Z" fill="#191919"/>
<path d="M235.204 161.234C229.978 159.224 226.661 153.797 227.666 147.968C228.37 143.646 231.486 140.229 235.606 138.621L297.516 115.003C299.425 114.299 300.531 112.189 299.928 110.179C294.099 88.3695 283.445 67.465 267.867 49.2741C266.36 47.465 263.646 47.3645 261.938 49.0731L217.516 93.4952C186.259 124.751 186.259 175.304 217.516 206.561L261.938 250.983C263.646 252.691 266.36 252.49 267.867 250.782C283.445 232.591 294.099 211.686 299.928 189.777C300.43 187.767 299.425 185.656 297.516 184.952L235.204 161.234Z" fill="#191919"/>
</svg>
